<svg width="current" height="current" viewBox="0 0 25 26" fill="none" xmlns="http://www.w3.org/2000/svg">
<path d="M23.125 20.944V9.95259C23.125 8.33382 21.8128 7.02155 20.194 7.02155H19.7055C19.1139 7.02155 18.5803 6.66581 18.3527 6.1197L17.2723 3.52685C17.0447 2.98074 16.5111 2.625 15.9195 2.625H9.08046C8.48884 2.625 7.95523 2.98074 7.72768 3.52685L6.64732 6.1197C6.41977 6.66581 5.88616 7.02155 5.29454 7.02155H4.80603C3.18727 7.02155 1.875 8.33382 1.875 9.95259V20.944C1.875 22.5628 3.18727 23.875 4.80603 23.875H20.194C21.8128 23.875 23.125 22.5628 23.125 20.944Z" stroke="white" stroke-width="1.875" stroke-linecap="round"/>
<path d="M17.2627 14.7161C17.2627 17.3465 15.1302 19.479 12.4997 19.479C9.86929 19.479 7.73682 17.3465 7.73682 14.7161C7.73682 12.0856 9.86929 9.95312 12.4997 9.95312C15.1302 9.95312 17.2627 12.0856 17.2627 14.7161Z" stroke="white" stroke-width="1.875" stroke-linecap="round"/>
</svg>
