<svg width="current" height="current" viewBox="0 0 15 15" fill="none" xmlns="http://www.w3.org/2000/svg">
<circle cx="7.5" cy="7.5" r="7.5" fill="#D9D9D9"/>
<path fill-rule="evenodd" clip-rule="evenodd" d="M11.2313 4.2406C11.431 4.4403 11.431 4.76407 11.2313 4.96377L8.4588 7.73628L11.2313 10.5088C11.431 10.7085 11.431 11.0323 11.2313 11.232C11.0316 11.4317 10.7078 11.4317 10.5081 11.232L7.73562 8.45946L4.96377 11.2313C4.76407 11.431 4.4403 11.431 4.2406 11.2313C4.0409 11.0316 4.0409 10.7078 4.2406 10.5081L7.01244 7.73628L4.2406 4.96443C4.0409 4.76473 4.0409 4.44096 4.2406 4.24126C4.4403 4.04156 4.76407 4.04156 4.96377 4.24126L7.73562 7.01311L10.5081 4.2406C10.7078 4.0409 11.0316 4.0409 11.2313 4.2406Z" fill="#6A6A6A" stroke="#6A6A6A" stroke-width="0.5" stroke-linecap="round"/>
</svg>