<svg width="current" height="current" viewBox="0 0 40 31" fill="none" xmlns="http://www.w3.org/2000/svg">
<g clip-path="url(#clip0_3112_432)">
<mask id="mask0_3112_432" style="mask-type:luminance" maskUnits="userSpaceOnUse" x="0" y="0" width="40" height="31">
<path d="M0 0H40V31H0V0Z" fill="white"/>
</mask>
<g mask="url(#mask0_3112_432)">
<path d="M6.13831 2.76093C8.68777 1.59059 11.4217 0.72834 14.2802 0.234493C14.3322 0.224962 14.3842 0.248781 14.411 0.29642C14.7626 0.922062 15.1521 1.73826 15.4248 2.37979C18.4993 1.9193 21.558 1.9193 24.5695 2.37979C24.8423 1.724 25.2459 0.922062 25.599 0.29642C25.6259 0.250371 25.6779 0.226552 25.7299 0.234493C28.5868 0.726762 31.3207 1.58901 33.8718 2.76093C33.8939 2.77045 33.9128 2.78635 33.9254 2.80697C39.111 10.5578 40.5316 18.118 39.8347 25.5846C39.8315 25.6211 39.8111 25.6561 39.7827 25.6783C36.3613 28.192 33.0472 29.718 29.7945 30.7295C29.7425 30.7454 29.6873 30.7264 29.6542 30.6835C28.8848 29.6323 28.1989 28.5239 27.6109 27.3583C27.5762 27.29 27.6093 27.209 27.6802 27.1821C28.7681 26.7692 29.804 26.2658 30.8004 25.6942C30.8793 25.6481 30.8856 25.5353 30.8131 25.4813C30.6034 25.3241 30.3936 25.1606 30.1934 24.9954C30.1572 24.9653 30.1067 24.9589 30.0641 24.978C23.5179 27.9681 16.4308 27.9681 9.96174 24.978C9.91915 24.9573 9.86867 24.9637 9.83087 24.9938C9.63059 25.159 9.4209 25.3241 9.20963 25.4813C9.13713 25.5353 9.14186 25.6481 9.22067 25.6942C10.2171 26.2769 11.253 26.7692 12.3425 27.1805C12.4134 27.2075 12.445 27.29 12.4103 27.3583C11.8096 28.5223 11.1237 29.6307 10.3685 30.6819C10.337 30.7264 10.2802 30.7454 10.2282 30.7295C6.95977 29.718 3.64563 28.192 0.224281 25.6783C0.19431 25.6561 0.17538 25.6227 0.172225 25.5862C-0.661803 16.954 1.56918 9.45574 6.08631 2.80855C6.09735 2.78635 6.11622 2.77045 6.13831 2.76093ZM26.6333 21.0382C28.6042 21.0382 30.2281 19.228 30.2281 17.0049C30.2281 14.7817 28.6357 12.9715 26.6333 12.9715C24.6152 12.9715 23.007 14.7976 23.0385 17.0049C23.0385 19.228 24.631 21.0382 26.6333 21.0382ZM13.3421 21.0382C15.3129 21.0382 16.9368 19.228 16.9368 17.0049C16.9368 14.7817 15.3445 12.9715 13.3421 12.9715C11.3239 12.9715 9.71577 14.7976 9.74727 17.0049C9.74727 19.228 11.3239 21.0382 13.3421 21.0382Z" fill="#5865F2"/>
</g>
</g>
<defs>
<clipPath id="clip0_3112_432">
<rect width="40" height="31" fill="white" transform="matrix(-1 0 0 1 40 0)"/>
</clipPath>
</defs>
</svg>
