<svg width="current" height="current" viewBox="0 0 33 33" fill="none" xmlns="http://www.w3.org/2000/svg">
<path d="M16.2528 3.10573C8.52468 3.10573 2.25806 8.0775 2.25806 14.2129C2.25806 18.1797 4.87616 21.6546 8.81908 23.6275L7.39963 28.7315C7.39963 28.7315 7.37334 28.9695 7.5258 29.0594C7.67826 29.1493 7.86227 29.0806 7.86227 29.0806C8.30387 29.0171 12.9618 25.722 13.7767 25.1507C14.581 25.2671 15.4169 25.3253 16.2634 25.3253C23.9915 25.3253 30.2581 20.3535 30.2581 14.2181C30.2581 8.08279 23.981 3.10573 16.2528 3.10573Z" fill="black"/>
<path d="M8.51398 18.0844C8.06711 18.0844 7.70437 17.7353 7.70437 17.3069V12.4779H6.44263C6.00628 12.4779 5.65405 12.1236 5.65405 11.6846C5.65405 11.2456 6.01154 10.8912 6.44263 10.8912H10.5801C11.0165 10.8912 11.3687 11.2456 11.3687 11.6846C11.3687 12.1236 11.0112 12.4779 10.5801 12.4779H9.31833V17.3069C9.31833 17.73 8.95033 18.0844 8.50872 18.0844H8.51398ZM15.5955 18.0738C15.2591 18.0738 15.0014 17.9363 14.9226 17.7142L14.523 16.6563H12.0627L11.6631 17.7142C11.5842 17.9363 11.3266 18.0738 10.9902 18.0738C10.8114 18.0738 10.6379 18.0368 10.475 17.968C10.2541 17.8623 10.0386 17.5819 10.2857 16.815L12.2151 11.7004C12.3518 11.309 12.7671 10.9071 13.2928 10.8965C13.8186 10.8859 14.2391 11.309 14.3706 11.7004L16.3 16.815C16.5471 17.5819 16.3315 17.8728 16.1107 17.968C15.953 18.0421 15.7743 18.0738 15.5955 18.0738ZM14.0972 15.2177L13.2928 12.9116L12.4885 15.2177H14.0972ZM17.5985 17.968C17.1779 17.968 16.8257 17.6348 16.8257 17.2276V11.7004C16.8257 11.2509 17.1937 10.8859 17.6511 10.8859C18.1085 10.8859 18.4765 11.2562 18.4765 11.7004V16.4712H20.1903C20.6109 16.4712 20.9631 16.8044 20.9631 17.2117C20.9631 17.619 20.6162 17.9522 20.1903 17.9522L17.5985 17.968ZM21.2733 17.2593V11.7057C21.2733 11.2562 21.6413 10.8912 22.0829 10.8912C22.5245 10.8912 22.8925 11.2614 22.8925 11.7057V13.4511L25.1532 11.1768C25.402 10.9265 25.8724 10.9484 26.1573 11.235C26.4249 11.5042 26.4944 11.9592 26.2151 12.2452L24.3646 14.0964L26.3518 16.741C26.6188 17.0848 26.554 17.6204 26.1941 17.8728C25.8392 18.1373 25.3179 18.0491 25.0638 17.7142L23.1712 15.1913L22.8925 15.4716V17.2434C22.8925 18.2988 21.2733 18.3395 21.2733 17.2593Z" fill="#FEE500"/>
</svg>
