<svg width="current" height="current" viewBox="0 0 20 22" fill="none" xmlns="http://www.w3.org/2000/svg">
<path d="M7.17586 2.36443C7.79312 1.74717 8.63031 1.40039 9.50325 1.40039C10.3762 1.40039 11.2134 1.74717 11.8306 2.36443C12.4479 2.98169 12.7947 3.81888 12.7947 4.69182V8.00039M1.90005 10.1775C2.16588 12.004 3.08043 13.6738 4.4764 14.8813C5.87236 16.0888 7.6564 16.7533 9.50215 16.7533M9.50215 16.7533C11.3479 16.7533 13.1319 16.0888 14.5279 14.8813C15.9239 13.6738 16.8384 12.004 17.1043 10.1775M9.50215 16.7533V20.6004M6.21182 6.80039V9.08039C6.21182 9.95333 6.55859 10.7905 7.17586 11.4078C7.79312 12.025 8.63031 12.3718 9.50325 12.3718C10.0618 12.3718 10.6056 12.2299 11.0866 11.966M1.30005 1.40039L18.7 18.8004" stroke="black" stroke-width="2" stroke-linecap="round" stroke-linejoin="round"/>
</svg>
