<svg width="current" height="current" viewBox="0 0 20 21" fill="none" xmlns="http://www.w3.org/2000/svg">
<g clip-path="url(#clip0_3115_453)">
<path d="M5.61282 4.91126C8.20607 2.93446 11.8011 2.93446 14.3943 4.91126L16.1848 2.70692C12.5471 -0.130287 7.45296 -0.130287 3.81531 2.69981L5.61282 4.91126Z" fill="#F06414"/>
<path d="M16.7389 3.16895L14.9485 5.3804C17.3357 7.61319 17.8686 11.2041 16.2203 14.0342L12.2771 10.2442L10.437 6.09859V12.3988L14.3375 16.1533C11.7727 18.0661 8.24869 18.0661 5.68386 16.1533L9.58439 12.4059V6.09148L7.73715 10.2371L3.79399 14.0271C2.14567 11.2041 2.67143 7.61319 5.05864 5.3804L3.26113 3.16895C1.17942 5.03908 -0.00708008 7.70563 -0.00708008 10.5002C-0.00708008 15.9755 4.47605 20.4197 9.99647 20.4197C15.5169 20.4197 20 15.9755 19.9929 10.5002C20 7.70563 18.8135 5.03908 16.7389 3.16895Z" fill="#3B464A"/>
<path d="M19.2682 16.0401H19.3677C19.4032 16.0401 19.4459 16.0401 19.4814 16.0472C19.5027 16.0472 19.524 16.0614 19.5382 16.0756C19.5666 16.1041 19.588 16.1396 19.5809 16.1823C19.588 16.2463 19.5453 16.3103 19.4743 16.3174L19.6164 16.5094H19.4885L19.3748 16.3316V16.5094H19.2682V16.0401ZM19.3677 16.1254V16.2463H19.3748C19.3961 16.2463 19.4174 16.2463 19.4388 16.2392C19.453 16.225 19.4672 16.2107 19.4672 16.1894C19.4672 16.1681 19.4601 16.1538 19.4459 16.1396C19.4246 16.1254 19.4032 16.1254 19.3819 16.1254H19.3677ZM19.4174 16.6872C19.1901 16.6872 19.0054 16.5023 19.0054 16.2747C19.0054 16.0472 19.1901 15.8623 19.4174 15.8623C19.6448 15.8623 19.8295 16.0472 19.8295 16.2747C19.8295 16.5094 19.6448 16.6872 19.4174 16.6872ZM19.7585 16.2818C19.7585 16.097 19.6093 15.9405 19.4174 15.9405C19.2327 15.9405 19.0764 16.0898 19.0764 16.2818C19.0764 16.4667 19.2256 16.6232 19.4174 16.6232C19.6093 16.616 19.7585 16.4667 19.7585 16.2818Z" fill="white"/>
</g>
<defs>
<clipPath id="clip0_3115_453">
<rect width="20" height="19.8675" fill="white" transform="translate(0 0.566406)"/>
</clipPath>
</defs>
</svg>
