<svg width="current" height="current" viewBox="0 0 17 17" fill="none" xmlns="http://www.w3.org/2000/svg">
<path d="M1 12.6379L3.84089 9.02417C4.64645 7.99941 6.18744 7.9659 7.03683 8.95465L9.53448 11.8621M7.37759 9.35138C8.45055 7.98659 9.94548 6.05298 10.0428 5.92718C10.0462 5.92268 10.0496 5.91843 10.0531 5.91397C10.8602 4.89584 12.3962 4.86463 13.2437 5.85118L15.7414 8.75862M3.06897 16H13.931C15.0737 16 16 15.0737 16 13.931V3.06897C16 1.92631 15.0737 1 13.931 1H3.06897C1.92631 1 1 1.92631 1 3.06897V13.931C1 15.0737 1.92631 16 3.06897 16Z" stroke="black" stroke-width="2" stroke-linecap="round" stroke-linejoin="round"/>
</svg>
