<svg width="current" height="current" viewBox="0 0 28 28" fill="none" xmlns="http://www.w3.org/2000/svg">
<path d="M27.6317 25.9841L20.6745 19.0268C22.5704 16.7081 23.5026 13.7493 23.2782 10.7625C23.0537 7.77571 21.6899 4.98943 19.4688 2.97998C17.2477 0.970542 14.3392 -0.108324 11.3449 -0.0334581C8.35061 0.0414081 5.49966 1.26428 3.38172 3.38221C1.26379 5.50014 0.0409198 8.3511 -0.0339464 11.3454C-0.108813 14.3396 0.970054 17.2481 2.9795 19.4693C4.98894 21.6904 7.77522 23.0542 10.762 23.2786C13.7488 23.5031 16.7076 22.5709 19.0264 20.675L25.9836 27.6322C26.2034 27.8445 26.4979 27.962 26.8035 27.9593C27.1091 27.9567 27.4014 27.8341 27.6175 27.618C27.8336 27.4019 27.9562 27.1096 27.9589 26.804C27.9615 26.4983 27.844 26.2039 27.6317 25.9841ZM11.6553 20.9803C9.81113 20.9803 8.00833 20.4335 6.47492 19.4089C4.94152 18.3843 3.74637 16.928 3.04062 15.2242C2.33487 13.5203 2.15022 11.6455 2.51 9.83671C2.86979 8.02793 3.75786 6.36646 5.06192 5.06241C6.36598 3.75835 8.02744 2.87028 9.83622 2.51049C11.645 2.1507 13.5198 2.33536 15.2237 3.04111C16.9275 3.74686 18.3838 4.942 19.4084 6.47541C20.433 8.00882 20.9798 9.81162 20.9798 11.6558C20.9771 14.128 19.9938 16.4981 18.2457 18.2462C16.4976 19.9943 14.1275 20.9776 11.6553 20.9803Z" fill="#374957"/>
</svg>
