<svg width="current" height="current" viewBox="0 0 277 225" fill="none" xmlns="http://www.w3.org/2000/svg">
<path d="M277 26.6519C269.286 38.125 259.823 47.9052 248.61 55.9926C248.72 58.1616 248.776 60.6131 248.776 63.3472C248.776 78.5381 246.561 93.7475 242.131 108.975C237.701 124.203 230.935 138.779 221.832 152.702C212.729 166.626 201.885 178.961 189.301 189.708C176.717 200.454 161.591 209.023 143.921 215.414C126.252 221.805 107.316 225 87.1121 225C55.5805 225 26.5431 216.488 -0.000244141 199.464C4.71089 199.989 9.22926 200.251 13.5549 200.251C39.8969 200.251 63.4246 192.137 84.1379 175.911C71.8557 175.686 60.8561 171.905 51.1391 164.569C41.4221 157.233 34.7351 147.859 31.078 136.447C34.6928 137.135 38.2604 137.479 41.7809 137.479C46.8485 137.479 51.8349 136.818 56.7401 135.497C43.6328 132.872 32.7591 126.344 24.1191 115.913C15.4795 105.482 11.1596 93.4425 11.1596 79.7949V79.0916C19.205 83.546 27.7866 85.9153 36.9045 86.1997C29.1398 81.0235 22.9836 74.2736 18.4358 65.95C13.8877 57.6263 11.6137 48.6187 11.6137 38.927C11.6137 28.7056 14.1751 19.1875 19.298 10.3727C33.552 27.8638 50.8237 41.8432 71.1131 52.3109C91.4028 62.7788 113.17 68.5924 136.414 69.7516C135.423 65.6201 134.926 61.3087 134.924 56.8174C134.924 41.1355 140.474 27.7455 151.574 16.6473C162.673 5.5491 176.065 0 191.747 0C208.167 0 221.997 5.97832 233.238 17.935C246.081 15.3911 258.106 10.7899 269.314 4.13145C264.996 17.7199 256.676 28.2026 244.353 35.5793C255.679 34.2335 266.562 31.2577 277 26.6519Z" fill="white"/>
</svg>
