<svg width="current" height="current" viewBox="0 0 25 25" fill="none" xmlns="http://www.w3.org/2000/svg">
<path fill-rule="evenodd" clip-rule="evenodd" d="M1.40661 1.29016C1.80572 0.899309 2.44818 0.903901 2.84159 1.30042L23.6608 22.2842C24.0542 22.6807 24.0495 23.319 23.6504 23.7098C23.2513 24.1007 22.6089 24.0961 22.2155 23.6996L1.39629 2.71583C1.00288 2.31931 1.0075 1.68102 1.40661 1.29016Z" fill="black"/>
<path fill-rule="evenodd" clip-rule="evenodd" d="M23.7028 1.37009C24.0991 1.76379 24.0991 2.4021 23.7028 2.79579L2.73222 23.6302C2.33595 24.0239 1.69347 24.0239 1.2972 23.6302C0.900932 23.2365 0.900933 22.5982 1.2972 22.2045L22.2678 1.37009C22.664 0.976395 23.3065 0.976395 23.7028 1.37009Z" fill="black"/>
<path fill-rule="evenodd" clip-rule="evenodd" d="M1.40661 1.29016C1.80572 0.899309 2.44818 0.903901 2.84159 1.30042L23.6608 22.2842C24.0542 22.6807 24.0495 23.319 23.6504 23.7098C23.2513 24.1007 22.6089 24.0961 22.2155 23.6996L1.39629 2.71583C1.00288 2.31931 1.0075 1.68102 1.40661 1.29016Z" stroke="black" stroke-linecap="round"/>
<path fill-rule="evenodd" clip-rule="evenodd" d="M23.7028 1.37009C24.0991 1.76379 24.0991 2.4021 23.7028 2.79579L2.73222 23.6302C2.33595 24.0239 1.69347 24.0239 1.2972 23.6302C0.900932 23.2365 0.900933 22.5982 1.2972 22.2045L22.2678 1.37009C22.664 0.976395 23.3065 0.976395 23.7028 1.37009Z" stroke="black" stroke-linecap="round"/>
</svg>
