<svg width="25" height="25" viewBox="0 0 25 25" fill="none" xmlns="http://www.w3.org/2000/svg">
<path fill-rule="evenodd" clip-rule="evenodd" d="M12.5 8.33301C9.62352 8.33301 7.29167 10.6649 7.29167 13.5413C7.29167 16.4178 9.62352 18.7497 12.5 18.7497C15.3765 18.7497 17.7083 16.4178 17.7083 13.5413C17.7083 10.6649 15.3765 8.33301 12.5 8.33301ZM9.375 13.5413C9.375 11.8155 10.7741 10.4163 12.5 10.4163C14.2259 10.4163 15.625 11.8155 15.625 13.5413C15.625 15.2672 14.2259 16.6663 12.5 16.6663C10.7741 16.6663 9.375 15.2672 9.375 13.5413Z" fill="white"/>
<path fill-rule="evenodd" clip-rule="evenodd" d="M9.375 2.08301C9.02672 2.08301 8.70147 2.25707 8.50828 2.54686L6.73418 5.20801H3.125C2.2962 5.20801 1.50134 5.53725 0.915291 6.1233C0.32924 6.70935 0 7.50421 0 8.33301V19.7913C0 20.6201 0.32924 21.415 0.915291 22.001C1.50134 22.5871 2.2962 22.9163 3.125 22.9163H21.875C22.7038 22.9163 23.4987 22.5871 24.0847 22.001C24.6708 21.415 25 20.6201 25 19.7913V8.33301C25 7.50421 24.6708 6.70935 24.0847 6.1233C23.4987 5.53725 22.7038 5.20801 21.875 5.20801H18.2658L16.4917 2.54686C16.2985 2.25707 15.9733 2.08301 15.625 2.08301H9.375ZM8.15839 6.82749L9.93248 4.16634H15.0675L16.8416 6.82749C17.0348 7.11728 17.36 7.29134 17.7083 7.29134H21.875C22.1513 7.29134 22.4162 7.40109 22.6116 7.59644C22.8069 7.79179 22.9167 8.05674 22.9167 8.33301V19.7913C22.9167 20.0676 22.8069 20.3326 22.6116 20.5279C22.4162 20.7233 22.1513 20.833 21.875 20.833H3.125C2.84873 20.833 2.58378 20.7233 2.38843 20.5279C2.19308 20.3326 2.08333 20.0676 2.08333 19.7913V8.33301C2.08333 8.05674 2.19308 7.79179 2.38843 7.59644C2.58378 7.40109 2.84873 7.29134 3.125 7.29134H7.29167C7.63995 7.29134 7.96519 7.11728 8.15839 6.82749Z" fill="white"/>
</svg>
