<svg width="31" height="31" viewBox="0 0 31 31" fill="none" xmlns="http://www.w3.org/2000/svg">
<path fill-rule="evenodd" clip-rule="evenodd" d="M15.5 7.66699C13.1988 7.66699 11.3333 9.53247 11.3333 11.8337C11.3333 14.1348 13.1988 16.0003 15.5 16.0003C17.8012 16.0003 19.6667 14.1348 19.6667 11.8337C19.6667 9.53247 17.8012 7.66699 15.5 7.66699ZM13 11.8337C13 10.4529 14.1193 9.33366 15.5 9.33366C16.8807 9.33366 18 10.4529 18 11.8337C18 13.2144 16.8807 14.3337 15.5 14.3337C14.1193 14.3337 13 13.2144 13 11.8337Z" fill="#2D3648"/>
<path d="M12.1667 17.667C11.0616 17.667 10.0018 18.106 9.22039 18.8874C8.43899 19.6688 8 20.7286 8 21.8337V23.5003C8 23.9606 8.3731 24.3337 8.83333 24.3337C9.29357 24.3337 9.66667 23.9606 9.66667 23.5003V21.8337C9.66667 21.1706 9.93006 20.5347 10.3989 20.0659C10.8677 19.5971 11.5036 19.3337 12.1667 19.3337H18.8333C19.4964 19.3337 20.1323 19.5971 20.6011 20.0659C21.0699 20.5347 21.3333 21.1706 21.3333 21.8337V23.5003C21.3333 23.9606 21.7064 24.3337 22.1667 24.3337C22.6269 24.3337 23 23.9606 23 23.5003V21.8337C23 20.7286 22.561 19.6688 21.7796 18.8874C20.9982 18.106 19.9384 17.667 18.8333 17.667H12.1667Z" fill="#2D3648"/>
<path fill-rule="evenodd" clip-rule="evenodd" d="M15.5 7.66699C13.1988 7.66699 11.3333 9.53247 11.3333 11.8337C11.3333 14.1348 13.1988 16.0003 15.5 16.0003C17.8012 16.0003 19.6667 14.1348 19.6667 11.8337C19.6667 9.53247 17.8012 7.66699 15.5 7.66699ZM13 11.8337C13 10.4529 14.1193 9.33366 15.5 9.33366C16.8807 9.33366 18 10.4529 18 11.8337C18 13.2144 16.8807 14.3337 15.5 14.3337C14.1193 14.3337 13 13.2144 13 11.8337Z" stroke="#2D3648" stroke-width="0.5" stroke-linecap="round" stroke-linejoin="round"/>
<path d="M12.1667 17.667C11.0616 17.667 10.0018 18.106 9.22039 18.8874C8.43899 19.6688 8 20.7286 8 21.8337V23.5003C8 23.9606 8.3731 24.3337 8.83333 24.3337C9.29357 24.3337 9.66667 23.9606 9.66667 23.5003V21.8337C9.66667 21.1706 9.93006 20.5347 10.3989 20.0659C10.8677 19.5971 11.5036 19.3337 12.1667 19.3337H18.8333C19.4964 19.3337 20.1323 19.5971 20.6011 20.0659C21.0699 20.5347 21.3333 21.1706 21.3333 21.8337V23.5003C21.3333 23.9606 21.7064 24.3337 22.1667 24.3337C22.6269 24.3337 23 23.9606 23 23.5003V21.8337C23 20.7286 22.561 19.6688 21.7796 18.8874C20.9982 18.106 19.9384 17.667 18.8333 17.667H12.1667Z" stroke="#2D3648" stroke-width="0.5" stroke-linecap="round" stroke-linejoin="round"/>
<circle cx="15.5" cy="15.5" r="14.5" stroke="black" stroke-width="2"/>
</svg>
