
<svg width="24" height="24" viewBox="0 0 24 24" fill="black" xmlns="http://www.w3.org/2000/svg">
<path d="M19.9895 4.71762L20.343 4.36406L19.9895 4.01051C17.9449 1.96596 15.1193 0.7 12 0.7C8.88072 0.7 6.05506 1.96596 4.01051 4.01051L3.65696 4.36406L4.01051 4.71762L5.70738 6.41449L6.06094 6.76804L6.41449 6.41449C7.84346 4.98552 9.81784 4.1 12 4.1C14.1822 4.1 16.1565 4.98552 17.5855 6.41449L17.9391 6.76804L18.2926 6.41449L19.9895 4.71762ZM7.19332 17.2996L6.79494 17.698L7.23783 18.0462C8.54962 19.0776 10.1996 19.7 12 19.7C13.8004 19.7 15.4504 19.0776 16.7622 18.0462L17.2051 17.698L16.8067 17.2996L13.7 14.1929V10.0514L15.184 12.2774L15.2114 12.3185L15.2464 12.3536L18.2043 15.3114L18.7151 15.8222L19.0132 15.1642C19.449 14.2025 19.7 13.1293 19.7 12C19.7 7.74886 16.2511 4.3 12 4.3C7.74886 4.3 4.3 7.74886 4.3 12C4.3 13.1293 4.55101 14.2025 4.98676 15.1642L5.28492 15.8222L5.79574 15.3114L8.75355 12.3536L8.78856 12.3185L8.81603 12.2774L10.3 10.0514V14.1929L7.19332 17.2996ZM0.5 12C0.5 5.64802 5.64802 0.5 12 0.5C18.352 0.5 23.5 5.64802 23.5 12C23.5 18.352 18.352 23.5 12 23.5C5.64802 23.5 0.5 18.352 0.5 12Z" stroke="black"/>
</svg>
