<svg width="19" height="19" viewBox="0 0 19 19" fill="none" xmlns="http://www.w3.org/2000/svg">
<g clip-path="url(#clip0_2279_836)">
<path d="M16.288 3.60351C15.8888 3.20413 15.4148 2.88731 14.8932 2.67116C14.3715 2.455 13.8124 2.34375 13.2477 2.34375C12.683 2.34375 12.1239 2.455 11.6022 2.67116C11.0805 2.88731 10.6066 3.20413 10.2074 3.60351L9.3789 4.43198L8.55043 3.60351C7.74409 2.79717 6.65045 2.34417 5.51011 2.34417C4.36977 2.34417 3.27613 2.79717 2.46979 3.60351C1.66345 4.40985 1.21045 5.50349 1.21045 6.64383C1.21045 7.78417 1.66345 8.87781 2.46979 9.68415L9.3789 16.5933L16.288 9.68415C16.6874 9.28496 17.0042 8.81099 17.2204 8.28932C17.4365 7.76765 17.5478 7.20851 17.5478 6.64383C17.5478 6.07915 17.4365 5.52001 17.2204 4.99834C17.0042 4.47667 16.6874 4.0027 16.288 3.60351Z" stroke="#1E1E1E" stroke-width="2" stroke-linecap="round" stroke-linejoin="round"/>
</g>
<defs>
<clipPath id="clip0_2279_836">
<rect width="18.7578" height="18.7578" fill="white"/>
</clipPath>
</defs>
</svg>
