<svg width="2879" height="304" viewBox="0 0 2879 304" fill="none" xmlns="http://www.w3.org/2000/svg">
<g clip-path="url(#clip0_2938_844)">
<path d="M309.642 112.492V303.156H228.885V276.676C221.346 285.06 212.54 291.635 202.408 296.46C192.275 301.225 181.298 303.638 169.417 303.638H79.9739C68.9971 303.638 58.6234 301.527 48.9131 297.365C39.2029 293.203 30.7592 287.352 23.5217 279.994C16.2843 272.635 10.5546 264.07 6.39307 254.359C2.17122 244.648 0.120605 234.333 0.120605 223.295V80.3428C0.120605 69.3651 2.23153 58.9301 6.39307 49.0984C10.6149 39.2667 16.2843 30.7016 23.5217 23.4635C30.7592 16.2254 39.3235 10.4952 49.1544 6.33332C58.9852 2.1111 69.4193 0.0603027 80.3961 0.0603027H310.547V77.3873H132.506C125.871 77.3873 120.081 79.1365 115.136 82.5746C110.19 86.073 107.778 90.2349 107.778 95.1809V208.517C107.778 213.463 110.251 217.625 115.136 221.124C120.081 224.622 125.871 226.311 132.506 226.311H204.157C210.791 226.311 216.581 224.562 221.526 221.124C226.472 217.625 228.885 213.463 228.885 208.517V190.724H148.127V113.397L309.642 112.552V112.492Z" fill="black"/>
<path d="M362.174 304V0H469.892V304H362.174Z" fill="black"/>
<path d="M755.289 0.844444C766.266 0.844444 776.7 2.95556 786.531 7.11746C796.361 11.3397 804.926 17.0095 812.163 24.2476C819.401 31.4857 825.13 40.0508 829.292 49.8825C833.514 59.7143 835.564 70.1492 835.564 81.127V70.3302V84.3238C835.564 98.3175 831.101 111.225 822.115 123.168C813.128 135.111 801.247 144.822 786.531 152.422C801.307 159.962 813.188 169.673 822.115 181.495C831.101 193.378 835.564 206.225 835.564 220.159V226.251C835.263 236.987 832.971 247 828.628 256.41C824.286 265.819 818.496 274.083 811.258 281.14C804.021 288.257 795.577 293.806 785.867 297.848C776.157 301.889 765.964 303.94 755.229 303.94H512.472V0L755.229 0.844444H755.289ZM620.25 113.337H709.21C715.905 113.337 720.67 111.587 723.625 108.089C726.52 104.59 727.967 100.308 727.967 95.3619C727.967 90.4159 726.52 86.1333 723.625 82.6349C720.73 79.1365 715.905 77.327 709.21 77.327H620.25V113.397V113.337ZM709.21 226.673C715.905 226.673 720.67 224.984 723.625 221.546C726.52 218.108 727.967 213.946 727.967 209.121C727.967 204.295 726.52 200.133 723.625 196.695C720.73 193.257 715.905 191.568 709.21 191.568H620.25V227.156L709.21 226.733V226.673Z" fill="black"/>
<path d="M1099.67 0C1124.88 0 1146.05 4.76508 1163.3 14.3556C1180.55 23.8857 1193.64 35.9492 1202.62 50.4254C1211.61 64.9016 1216.5 80.7651 1217.4 97.9556C1218.25 115.206 1214.99 131.371 1207.63 146.571C1200.27 161.771 1188.75 174.8 1173.13 185.657C1157.51 196.514 1137.79 202.968 1114.09 204.959V208.879C1114.09 213.825 1116.56 217.987 1121.44 221.486C1126.39 224.984 1132.18 226.673 1138.81 226.673H1217.4V304H1086.7C1075.73 304 1065.29 301.889 1055.46 297.727C1045.63 293.505 1037.07 287.835 1029.83 280.597C1022.59 273.359 1016.86 264.794 1012.7 254.962C1008.48 245.13 1006.43 234.695 1006.43 223.717V205.502H979.047V304.06H871.33V0H1099.73H1099.67ZM978.926 128.114H1083.57C1092.55 128.114 1099.25 125.46 1103.77 120.213C1108.24 114.965 1110.53 109.114 1110.53 102.721C1110.53 96.327 1108.3 90.4762 1103.77 85.2286C1099.31 79.9809 1092.55 77.327 1083.57 77.327H978.926V128.114Z" fill="black"/>
<path d="M1639.83 0H1747.54V226.673H1909.06V304H1640.25L1639.83 0Z" fill="black"/>
<path d="M1963.76 76.4222H1856.95V0H2178.29V76.4222H2071.48V304H1964.25L1963.82 76.4222H1963.76Z" fill="black"/>
<path d="M2761.15 0C2786.36 0 2807.53 4.76508 2824.78 14.3556C2842.03 23.946 2855.12 35.9492 2864.1 50.4254C2873.09 64.9016 2877.97 80.7651 2878.88 97.9556C2879.72 115.206 2876.47 131.371 2869.11 146.571C2861.75 161.771 2850.23 174.8 2834.61 185.657C2818.99 196.514 2799.27 202.968 2775.56 204.959V208.879C2775.56 213.825 2778.04 217.987 2782.92 221.486C2787.87 224.984 2793.66 226.673 2800.29 226.673H2878.88V304H2748.18C2737.21 304 2726.77 301.889 2716.94 297.727C2707.11 293.505 2698.55 287.835 2691.31 280.597C2684.07 273.359 2678.34 264.794 2674.18 254.962C2669.96 245.13 2667.91 234.695 2667.91 223.717V205.502H2640.53V304.06H2532.81V0H2761.21H2761.15ZM2640.47 128.114H2745.11C2754.09 128.114 2760.79 125.46 2765.31 120.213C2769.77 114.965 2772.07 109.114 2772.07 102.721C2772.07 96.327 2769.84 90.4762 2765.31 85.2286C2760.79 79.9809 2754.09 77.327 2745.11 77.327H2640.47V128.114Z" fill="black"/>
<path d="M1424.87 66.4698L1488.93 279.692L1498.27 304H1609.85L1511.3 0H1338.93L1239.9 304H1351.47L1361.43 278.124L1424.87 66.4698Z" fill="black"/>
<path d="M1424.87 301.406C1450.29 301.406 1470.89 280.801 1470.89 255.384C1470.89 229.967 1450.29 209.362 1424.87 209.362C1399.46 209.362 1378.86 229.967 1378.86 255.384C1378.86 280.801 1399.46 301.406 1424.87 301.406Z" fill="black"/>
<path d="M2326.66 66.4698L2390.71 279.692L2400.06 304H2511.64L2413.09 0H2240.72L2141.68 304H2253.26L2263.21 278.124L2326.66 66.4698Z" fill="black"/>
<path d="M2326.66 301.406C2352.08 301.406 2372.68 280.801 2372.68 255.384C2372.68 229.967 2352.08 209.362 2326.66 209.362C2301.25 209.362 2280.64 229.967 2280.64 255.384C2280.64 280.801 2301.25 301.406 2326.66 301.406Z" fill="black"/>
</g>
<defs>
<clipPath id="clip0_2938_844">
<rect width="2879" height="304" fill="white"/>
</clipPath>
</defs>
</svg>
